<?xml version="1.0" encoding="UTF-8"?><svg id="Object" xmlns="http://www.w3.org/2000/svg" viewBox="0 0 878.9378 618.5963"><defs><style>.cls-1{fill:#f7db5e;}.cls-2{fill:#f2f2f2;}.cls-3{fill:#ebb044;}.cls-4{fill:#fff;}.cls-5{fill:#ffd559;}.cls-6{fill:#e5d1bd;}.cls-7{fill:#edbd31;}.cls-8{fill:#b5d6ca;}.cls-9{fill:#d49a34;}.cls-10{fill:#c9a98d;}.cls-11{fill:#222323;}.cls-12{fill:#145566;}.cls-13{fill:#1a3151;}.cls-14{fill:#3ababa;}</style></defs><path class="cls-4" d="M173.6105,319.1831c-.3477,10.1847-.6653,20.988-6.2554,29.5086,10.1747-.4289,20.3083-1.8242,30.2203-4.161,.7263-21.3505,5.6349-42.32,8.0692-63.5438,2.0978-18.2906,2.3538-36.748,1.9395-55.1538-.3355-14.9037-1.1144-29.8739-3.8885-44.5492-2.1386-11.3141-4.4858-19.4365-9.9553-29.6483-.2769-.5169-.5876-1.067-1.1179-1.3171-.458-.216-.9921-.1648-1.4938-.0971-8.8598,1.1948-7.252,2.9754-6.6791,10.3992,.4632,6.0025-.5793,12.0075-.8708,17.9918-.5585,11.4586-1.3455,22.9047-2.2351,34.3419-1.7804,22.8879-3.987,45.741-5.6482,68.6385-.9081,12.5172-1.6532,25.047-2.0849,37.5903Z"/><g><g><path class="cls-10" d="M634.5091,132.5743c.5761-.0745,1.1254-.1182,1.6048-.144,3.4031-.1833,6.8313,.1075,10.1549,.8614,.5918,.1342,1.1975,.2909,1.6845,.6531,.4031,.2997,.697,.72,.9836,1.1326,2.9519,4.2502,6.2967,7.7321,9.8906,11.4449,2.69,2.7789,6.8166,7.1511,4.5158,11.3167-.69,1.2494-1.4026,2.5263-2.4893,3.4044-.8883,.7178-1.9793,1.1288-3.073,1.4751-.852,.2698-2.1237,.918-2.9453,.4721-.8627-.4681-1.969-2.7531-2.5715-3.595-1.7215-2.4059-3.4431-4.8118-5.1647-7.2176-1.6886-2.3599-3.8746-4.9943-6.5548-4.9157-.5863,.0171-1.1584,.1714-1.7489,.1045-.6662-.0754-1.2967-.4251-1.8971-.7847-2.1996-1.3173-4.3699-2.8436-6.2677-4.6375-1.7323-1.6375-1.407-3.4089-1.5829-5.5798-.2197-2.7108,2.8872-3.6578,5.461-3.9905Z"/><path class="cls-12" d="M697.4199,210.9867c-5.9253-1.9159-11.2735-5.1315-16.8305-9.9761-13.7302-11.97-25.8573-26.0277-35.8025-41.5017,4.8228-6.246,10.934-11.3574,17.8666-14.9433,10.5631,10.6892,21.8658,20.5716,33.7655,29.5225,5.8304,4.3855,11.6134,7.3135,18.4113,5.3152,15.1356-4.4491,29.8442-10.1248,43.9612-16.9636,3.1212-1.512,6.2922-3.1036,9.8104-3.4192,6.4515-.5789,13.2267,3.4649,17.2126,9.2754,3.9859,5.8104,5.4064,13.0908,4.9067,19.8539-.3581,4.847-1.7371,9.6913-4.8882,13.016-3.2595,3.439-8.0048,4.8778-12.61,6.0451-20.5438,5.2073-42.0875,7.2114-63.7482,5.9299-4.3767-.2589-8.3298-.9497-12.0549-2.1541Z"/></g><g><g><g><path class="cls-6" d="M782.2135,598.3629c-2.7915-.0166-5.5829-.0331-8.3743-.0495-1.8669-10.2326-2.9524-20.759-3.2243-31.2673,3.9643,1.9206,9.2506,.3565,10.3348,7.53,.3511,2.322,.7121,23.7835,1.2638,23.7868Z"/><path class="cls-11" d="M773.7218,593.4462c-1.3541,.2553-2.5884,1.2642-3.3799,2.7627-.4595,.8702-.7807,1.9046-1.3605,2.6187-.5685,.7002-1.329,1.0222-2.0676,1.3272-3.5317,1.4585-6.1824,1.9433-9.49,4.1659-1.1809,.7935-2.4816,1.3939-3.8398,1.7723-.4105,.1144-.8479,.2206-1.1536,.5275-.366,.3675-.458,.9413-.4418,1.4699,.0671,2.1932,1.6805,4.1006,3.614,4.9821,2.3057,1.0512,4.9345,1.0855,7.3026,1.9794,2.7822,1.0503,5.6814,.9344,8.5441,.2972,5.7904-1.2888,11.0336-4.4952,16.14-7.4768,.4547-.2656,.9296-.5623,1.1994-1.1328,.2884-.6099,.2877-1.4156,.2664-2.1735-.118-4.218-.2219-10.6473-4.4681-10.4789-1.8113,.0718-3.4116,1.6459-5.3639,1.5784-1.5994-.0553-4.2831-2.4489-5.5013-2.2193Z"/></g><path class="cls-12" d="M731.2235,452.204c-.7036,4.1638-1.407,8.3623-1.2923,12.5882,.1234,4.5484,1.1907,9.0052,2.2523,13.4196,9.4534,39.312,18.9068,78.6239,28.3602,117.9359,6.2062-.489,12.4125-.978,18.6187-1.4671,2.7983-.2205,7.776-2.5883,10.4175-3.5727,0,0,.2503-3.8013-.026-6.4706-4.9054-47.4044-12.5406-83.2665-10.3099-125.2106,.5609-10.5448,6.5281-17.5725,11.5944-26.7272,17.2113-31.1005,20.5998-57.2436,28.397-77.73,.4936-1.2968-51.5038-6.6177-54.0753-6.8804-6.5328-.6673-12.1094-.5322-15.6664,5.8919-3.9319,7.1012-4.2286,17.2874-5.6211,25.1455-2.0411,11.5184-4.0605,23.0411-6.0582,34.5677-2.2239,12.8316-4.4208,25.6682-6.5909,38.5098Z"/></g><g><g><path class="cls-6" d="M847.3743,599l-8.961,.8193c-3.0199-10.3361-5.2333-21.0557-6.575-31.8412,4.4317,1.5644,9.9288-.5946,11.8058,6.6748,.6076,2.353,3.1398,24.4011,3.7302,24.3471Z"/><path class="cls-11" d="M837.801,594.8229c-1.4226,.4034-2.6417,1.5699-3.3384,3.1943-.4045,.9431-.6444,2.0411-1.1931,2.8361-.538,.7796-1.3191,1.1901-2.0786,1.5807-3.6312,1.868-6.4175,2.6423-9.7327,5.2733-1.1835,.9393-2.5145,1.6923-3.9293,2.2229-.4276,.1603-.8847,.3151-1.181,.6627-.3546,.4161-.3956,1.0163-.3254,1.5586,.2911,2.2499,2.2072,4.0453,4.3632,4.7514,2.5711,.8421,5.3859,.6041,8.0078,1.278,3.0806,.7916,6.1696,.3711,9.1675-.5821,6.0637-1.9281,11.3505-5.7726,16.5135-9.3716,.4598-.3205,.9379-.6753,1.1694-1.2903,.2474-.6577,.1661-1.4867,.0676-2.2645-.548-4.3284-1.302-10.9338-5.8263-10.3193-1.9301,.2622-3.4841,2.0483-5.5788,2.1819-1.716,.1093-4.8256-2.075-6.1054-1.7121Z"/></g><path class="cls-12" d="M807.5043,507.7791c6.641,27.4353,15.782,54.53,17.5696,82.701,.0839,1.3212,.1975,2.7582,1.0919,3.7343,.8917,.9732,2.3129,1.2146,3.6262,1.3468,8.3664,.8426,16.9428-.4934,24.6565-3.8407,.1026-14.7244-4.1701-29.0791-6.5325-43.6131-2.9112-17.9108-2.9213-36.1514-2.8626-54.2971,.1431-44.3059,13.5923-91.0535,9.8022-135.1972-.7178-8.3604-14.5685-14.4911-17.8471-22.2152-17.4908,3.6396-35.8365,3.1006-53.0834-1.5598,.6746,9.0623,2.6959,17.1244,4.1257,25.9376,1.8829,11.6053,1.8943,23.7759,2.9101,35.4949,2.0746,23.9346,4.6284,47.846,8.5214,71.5599,2.2007,13.4054,4.8257,26.744,8.022,39.9486Z"/></g><path class="cls-12" d="M819.6249,149.766c4.003,1.4305,7.5917,3.3929,10.3694,5.9823,8.765,8.1703,15.9787,19.6528,21.7182,30.1913,11.7529,21.5799,19.9279,45.979,23.8537,70.3725,6.6224,41.1488,2.4977,83.4047-3.8459,124.6519-51.4561-14.0395-103.3052-26.5027-155.4599-37.3685,5.603,1.1674,22.5166-30.5455,25.019-35.3347,6.501-12.442,14.0183-28.2042,14.7926-42.611,1.3701-25.4895-5.1716-50.7617-2.8585-76.25,.8795-9.6912-.0239-18.3194,6.5184-25.9894,7.0451-8.2596,17.0831-13.7458,27.5562-15.7533,9.0334-1.7317,22.0528-1.5663,32.3368,2.1089Z"/><path class="cls-4" d="M781.4608,161.0805c.1051,1.9393,.3467,4.1088,.1616,6.3952-.4604,5.6762-1.4721,11.343-2.8274,16.8702-1.1767,4.7991-2.6628,9.524-3.6349,14.3686-1.0599,5.2828-1.5007,10.6683-1.875,16.0434-2.463,35.3623-2.2096,71.3526-11.9487,105.4364-2.2755,7.9636-5.0977,15.8272-6.1659,24.0403-.2295,1.7651-.3026,3.7761,.9077,5.0811,1.0189,1.0987,2.6359,1.3475,4.1231,1.5311,11.3666,1.403,22.7435,2.7231,34.1294,3.9603-1.0284-14.1068,1.4308-28.1982,2.9812-42.2571,2.3588-21.3902,2.6181-43.0114,.7727-64.452-1.4501-16.8488-4.1936-33.5584-5.5723-50.4142-.7904-9.6653-2.4572-19.5525-.8395-29.2238,.7739-4.6274,5.0119-9.2872,5.5577-13.2674,.7451-5.435-5.8679-2.9832-10.2555-2.0702-5.3887,1.1213-5.7246,4.0793-5.5142,7.9581Z"/></g><g><circle class="cls-5" cx="649.7163" cy="280.8766" r="143.6947" transform="translate(-8.3122 541.6856) rotate(-45)"/><circle class="cls-3" cx="649.7163" cy="280.8766" r="121.9518"/><path class="cls-7" d="M713.5199,176.7903c12.1447,18.9599,19.1864,41.5019,19.1864,65.6889,0,67.3521-54.5997,121.9518-121.9518,121.9518-23.3916,0-45.2415-6.591-63.8036-18.0095,21.6736,33.8365,59.6004,56.2629,102.7654,56.2629,67.3521,0,121.9518-54.5997,121.9518-121.9518,0-43.9605-23.2638-82.4831-58.1482-103.9423Z"/><path class="cls-1" d="M549.1275,292.0351c0-59.4544,48.1973-107.6517,107.6517-107.6517,34.7519,0,65.6519,16.4715,85.3346,42.0283-18.589-32.2712-53.4308-53.9971-93.3475-53.9971-59.4544,0-107.6517,48.1973-107.6517,107.6518,0,24.7025,8.326,47.457,22.3171,65.6234-9.0986-15.7955-14.3042-34.1171-14.3042-53.6547Z"/><path class="cls-9" d="M640.1589,279.1355h25.5709v13.8474h-19.8789c1.4716,5.7767,2.2084,9.7982,2.2084,12.0633,0,2.6054-.8215,7.1081-2.4633,13.5069l1.274,.4251c1.8119,.6239,3.4684,1.2039,4.9699,1.7411,1.5003,.5393,2.8737,1.0344,4.1203,1.4869,6.9086,2.7756,11.9493,4.1631,15.1213,4.1631,2.4345,0,4.5582-.8496,6.3714-2.5487,.9623-.9057,2.0248-2.1797,3.186-3.8233,1.1599-1.6418,2.4492-3.6806,3.8653-6.1165l15.8013,9.5147c-3.7953,8.0998-7.9303,13.7918-12.403,17.076-4.532,3.3976-10.0819,5.0967-16.6509,5.0967-4.7576,0-12.0078-1.6711-21.7481-5.012-9.4586-3.6239-16.0849-5.4371-19.8789-5.4371-3.1153,0-5.5786,.7368-7.3905,2.209-1.8132,1.4729-3.852,4.5875-6.1165,9.3445l-16.9905-8.5803c5.2669-8.4383,9.4573-13.8473,12.5726-16.2258,3.6238-2.8883,8.4663-4.6722,14.5273-5.3522,1.3587-4.4728,2.0388-8.523,2.0388-12.1482,0-3.9074-.9918-7.7015-2.9738-11.3832h-22.427v-13.8474h15.3762c-5.4937-10.9301-8.2407-20.2746-8.2407-28.0347,0-11.2692,4.2479-20.8687,12.7434-28.799,8.6078-7.9284,18.9721-11.8931,31.0921-11.8931,12.1761,0,22.1727,3.9928,29.9889,11.9785,7.871,7.8723,11.8077,18.067,11.8077,30.5829l-19.4538,7.2209c0-9.4579-.9636-16.0837-2.8884-19.8789-3.7379-7.5313-10.2513-11.2986-19.5392-11.2986-6.8531,0-12.4878,2.2377-16.9057,6.7111-4.4174,4.4173-6.6263,10.0813-6.6263,16.9906,0,5.7767,3.0018,14.046,9.0054,24.806,.1128,.1702,.2403,.3824,.3824,.6373,.1402,.255,.325,.5813,.5519,.977Z"/></g><g><path class="cls-10" d="M781.0773,158.8541c.3377,.5429,10.5154-2.1293,11.6447-2.3678,3.5394-.7476,5.0729-2.1222,4.8953-6.0404-.193-4.2565,.3217-8.3033,1.7541-12.3148,1.1595-3.2469,3.4296-5.7894,4.7202-8.9516,1.1378-2.7879,1.9592-5.7023,2.5082-8.6615,.8957-4.8279,1.1064-9.7895,.8702-14.6885-.1812-3.7558-2.0913-7.0702-3.1047-10.6914-.7673-2.7417-1.5739-5.5624-3.3359-7.7986-3.092-3.9241-8.4484-5.2319-13.432-5.5817-14.1867-.9962-39.4598,5.518-37.9704,23.754,.327,4.0031,1.3007,7.9215,2.2708,11.8191,2.0467,8.2232,2.9546,23.977,13.0356,26.7601,2.8426,.7847,6.0384,.1443,8.6745,1.4658,4.6488,2.3305,4.7236,8.881,7.4694,13.2973Z"/><path class="cls-13" d="M828.9917,76.3783c-4.037-1.1235-7.3515-3.9541-10.5962-6.6059-3.2448-2.6517-6.788-5.3037-10.9188-5.9303-3.7509-.5689-7.4665,.6157-11.2347,.7244-3.9696,.1142-7.9088-.9655-11.8745-1.4197-11.4413-1.3101-23.2307,2.9671-30.6079,11.2517-4.3886,4.9283-11.5031,16.3712-7.6912,23.2158,.8305,1.4913,2.3304,2.5926,4.0018,2.9384,2.2171,.4588,4.6326-.6635,6.7838-.0683,1.5945,.4412,2.416,1.5875,3.5519,2.8221,2.4686,2.6831,4.8243,5.5914,8.2358,7.1163,3.2455,1.4509,6.9458,1.3319,10.498,1.1862,.7874-.0322,1.6171-.0775,2.2788-.5055,.9598-.6211,1.2843-1.8406,1.791-2.8655,.9758-1.9753,3.0827-3.5075,5.2736-3.2736,2.1907,.2338,4.0342,2.6623,3.2354,4.7157-.8117,2.0874-3.4353,2.6306-5.6207,3.1196-.666,.1491-1.4668,.48-1.5019,1.1614-.0236,.4592,.332,.8394,.6623,1.1593,3.4346,3.3271,6.8692,6.6542,10.3038,9.9812,2.093,2.0275,6.7562,8.9756,9.7717,5.6568,5.0888-5.6007,5.2964-13.1275,9.9879-18.4636,2.1468-2.442,4.0883-5.0571,5.8014-7.8117,3.2882-5.2867,4.9209-11.4165,9.1147-16.1118,1.5865-1.7759,3.5916-3.1566,5.2063-4.908,2.6924-2.9199,4.202-6.8583,4.1615-10.8566-1.5822,3.6848-6.5768,4.8952-10.6138,3.7716Z"/></g><path class="cls-10" d="M637.5695,142.425c.541-.1937,.9378-.6501,1.3092-1.0883,.9789-1.1553,1.9579-2.3105,2.9369-3.4658,1.3303,.5668,2.4016,1.7128,2.8777,3.0782,.2984,.8559,.529,1.9575,1.4082,2.178,1.0878,.273,1.8166-1.0862,2.0618-2.1805,.1903-.8492,.348-1.7057,.473-2.567,.1147-.7915,.1889-1.6528-.2186-2.3411-.3946-.6664-1.1515-1.0174-1.8752-1.2932-2.9108-1.1095-6.0037-1.6258-9.0981-1.8722-2.285-.1819-5.914-.972-7.842,.6418-1.5096,1.2634-1.7674,3.4163-.4576,4.8874,1.2583,1.413,6.5172,4.7055,8.4247,4.0227Z"/><path class="cls-14" d="M792.1201,157.4494c1.0095,.3002,2.0693,.7567,2.5822,1.6767,.7894,1.416-.1107,3.2327-1.3635,4.2617-1.2528,1.0289-2.8302,1.611-4.0538,2.6745-2.8276,2.4574-3.051,6.693-3.0733,10.4392-.2459,41.1785-1.8593,82.3488-4.8368,123.4202-3.003,1.2412-6.0061,2.4826-9.0091,3.7238-2.3915-7.0474-4.0353-14.4201-3.9809-21.862,.0406-5.5445,1.0197-11.0336,1.9479-16.5003,3.5486-20.8988,6.3936-41.9095,8.9948-62.9449,1.2881-10.4172,2.6513-20.8399,3.7399-31.2801,.3582-3.4345-.7185-7.523-.2111-10.7014,.754-4.7239,4.6351-4.2835,9.2637-2.9074Z"/><g><path class="cls-10" d="M702.0446,288.8163c-.0956-.5878-.183-1.1771-.2618-1.7675-.0473-.3541-.0909-.7197,.0029-1.0644,.0919-.3375,.3073-.6258,.5226-.9015,2.4318-3.1168,5.3454-5.3844,8.4731-7.7356,1.1652-.876,1.2277-1.0157,2.7047-.65,1.6391,.4058,3.2682,.9967,4.866,1.5458,2.3004-.0128,4.6043,.0678,6.8971-.1411,5.803-.5286,17.4957-7.8078,21.6588-1.7161,.8054,1.1784,1.6251,2.3893,1.9204,3.7549,.2414,1.1163,.1175,2.2755-.0653,3.408-.1424,.8824-.1357,2.3097-.9035,2.8428-.8062,.5598-3.3447,.5198-4.3675,.679-2.9233,.455-5.8465,.91-8.7696,1.365-2.8673,.4463-6.2035,1.2133-7.3393,3.6422-.2484,.5314-.3681,1.1117-.6935,1.609-.3671,.561-.963,.9667-1.5542,1.3411-2.1662,1.3718-4.5057,2.6232-6.9617,3.5109-2.2418,.8103-3.6774-.2771-5.6953-1.0967-2.1067-.8558-4.4346-.4479-6.5794-1.1059-2.1565-.6617-2.8444-2.4247-3.2968-4.5493-.2098-.9855-.3957-1.976-.5577-2.9706Z"/><path class="cls-12" d="M809.7043,269.8658c-4.3769,4.4296-9.6549,7.7591-16.4818,10.5422-16.8675,6.8763-34.8782,11.3819-53.1722,13.3014-3.4081-7.1174-5.2233-14.8748-5.3067-22.6794,14.2988-4.6243,28.2099-10.272,41.5576-16.872,6.5397-3.2337,11.7566-7.081,13.0305-14.0511,2.8364-15.5188,4.3854-31.2082,4.6296-46.8926,.054-3.4677,.0593-7.0157,1.3603-10.2997,2.3858-6.022,9.0455-10.2534,16.028-11.1988,6.9824-.9453,14.1235,1.0617,19.9385,4.5508,4.1675,2.5006,7.8735,5.9117,9.4248,10.2217,1.6047,4.4583,.7546,9.3434-.275,13.9814-4.5926,20.6899-12.4958,40.8315-23.386,59.5994-2.2004,3.7921-4.5959,7.0118-7.3476,9.7967Z"/></g></g><path class="cls-12" d="M563.2905,66.5255c-24.6198-32.5321-60.9884-53.0555-102.413-57.7924-5.9983-.6858-12.0962-1.0336-18.1241-1.0336-16.0114,0-31.9301,2.4128-47.3141,7.1713-14.2648,4.4122-27.9208,10.7959-40.6429,18.9944l-11.487-26.4351-3.2286-7.4301-2.4196,7.7316-19.2396,61.4809-1.2717,4.0639,4.2558-.1465,64.411-2.2174,8.4655-.2915-6.7426-5.127-19.6804-14.9648c22.7694-14.2487,48.5797-21.7592,74.9135-21.7592,5.2263,0,10.5124,.3013,15.7113,.8958,35.663,4.078,66.9289,21.699,88.0384,49.617l1.8203,2.4073,2.4072-1.8202,11.9781-9.057,1.0284-.763,.159-1.286,.158-1.2842-.7829-.9542Z"/><path class="cls-14" d="M316.9733,512.875c24.8124,32.7866,61.4654,53.4705,103.2141,58.2445,6.0452,.6912,12.1907,1.0416,18.2658,1.0416,16.1366,0,32.1798-2.4315,47.6842-7.2274,14.3764-4.4467,28.1391-10.8803,40.9607-19.1429l11.5769,26.6418,3.2539,7.4883,2.4384-7.7922,19.3901-61.9617,1.2817-4.0957-4.2891,.1476-64.9148,2.2348-8.5317,.2939,6.7954,5.167,19.8343,15.0818c-22.9475,14.3602-48.9597,21.9295-75.4995,21.9295-5.2672,0-10.5946-.3038-15.8341-.9029-35.942-4.1099-67.4525-21.8686-88.7272-50.0051l-1.8344-2.4261-2.4261,1.8344-12.0718,9.128-1.0364,.7688-.1602,1.2961-.1593,1.2943,.7891,.9616Z"/><g><g><path class="cls-6" d="M353.1735,127.56c-.3192-.1426-.6481-.2613-.9893-.3471-3.1829-.8002-5.3537,1.6613-8.2681,1.7549-1.2997,.0417-4.359-2.365-5.071-.3249-.2564,.7552-1.3379,3.2234-2.2686,5.7668-1.4809,1.6959-2.8887,3.462-4.5227,5.0102-4.1355,3.9184-17.475,7.31-15.2282,14.811,.4346,1.4509,.8862,2.9362,1.7977,4.1447,.7451,.988,1.7583,1.7363,2.7876,2.4216,.8019,.5339,1.9477,1.5734,2.8681,1.3906,.9663-.1918,2.5568-2.1025,3.339-2.7454,2.2352-1.837,4.4705-3.674,6.7058-5.5112,2.1925-1.8018,4.9431-3.719,7.6261-2.8005,.5869,.2009,1.131,.5328,1.7397,.652,.6867,.1345,1.3945-.0132,2.0741-.1801,2.49-.6114,4.9938-1.4386,7.282-2.6174,4.0894-2.1098,4.926-9.2854,5.6845-13.268,.1887-.9915,.3513-2.0246,.0922-3.0001-.4215-1.5864-1.8425-2.6676-3.174-3.6234-.7884-.566-1.5949-1.1406-2.4749-1.5337Z"/><path class="cls-8" d="M271.4309,194.5475c3.623,.2747,7.2979,.5467,10.8643-.149,2.8435-.5548,5.5321-1.7094,8.1642-2.922,16.323-7.5194,31.4665-17.6046,44.7075-29.7738-3.5557-7.6846-8.6455-14.6523-14.8804-20.3705-12.8662,7.2476-26.3094,13.466-40.1595,18.5766-2.8325,1.0452-5.7207,2.0528-8.7287,2.3045-4.3338,.3625-8.6262-.8609-12.804-2.0718-16.2021-4.6962-32.4042-9.3924-48.6062-14.0886-9.7755-2.8335-19.926-5.6956-29.9884-4.1767-27.901,4.2117-26.684,39.9612-1.0448,45.9388,28.7883,6.7119,62.9198,4.4914,92.476,6.7325Z"/></g><g><g><g><path class="cls-6" d="M10.0466,557.8848c2.0281,2.6491,4.6374,4.6496,6.947,6.9887,9.1737-6.7928,17.5965-13.7164,25.1933-22.4553-6.5274-1.1127-7.5409-6.8856-15.418-1.1859-2.5499,1.845-12.3488,14.0669-16.7223,16.6525Z"/><path class="cls-11" d="M22.4886,561.6517c1.5884,1.358,1.6522,2.8787,1.5563,4.7367-.0557,1.0788-.5067,2.1526-.2989,3.2269,.2079,1.0743,.7276,1.868,1.3637,2.8241,3.3499,5.0345,12.335,15.5885-.1055,16.2757-11.2977,.624-19.7899-15.4533-24.4018-24.9824-.3032-.6266-.6781-1.2435-.589-1.9595,.0893-.716,.4524-1.4487,.9142-2.1028,2.5699-3.64,5.6908-8.2926,10.4329-5.3513,2.0228,1.2547,2.1893,3.809,4.3414,5.1283,1.763,1.0807,5.1983,.8462,6.7867,2.2043Z"/></g><path class="cls-13" d="M66.6341,371.0712c-2.5326,21.9139,30.2694,44.8303,23.6459,62.468-13.8549,36.894-42.1207,67.9289-65.4226,96.54-1.6654,2.0448-12.4543,13.4222-14.8108,15.9967,4.9807,7.1182,12.4204,12.05,19.0186,18.1719,33.2995-25.2094,93.0588-71.895,109.1019-93.3635,21.776-29.1404,26.3755-83.837,36.8134-121.6049,1.7288-6.2557,4.3284-15.2681,.3693-21.2366-3.0364-4.5774-7.5398-6.7357-13.2963-8.4145-15.4021-4.4917-36.3108-13.5953-51.4434-4.6369-16.5403,9.7919-42.0301,39.2419-43.976,56.0798Z"/></g><g><g><path class="cls-6" d="M228.5971,569.8019c3.3651,.695,6.7531,.3562,10.1223,.7242,2.7034-11.7624,4.8361-23.2944,4.9831-35.5343-5.9142,3.8857-10.3953,.2354-12.6687,10.2366-.736,3.2375-.5657,19.5111-2.4367,24.5735Z"/><path class="cls-11" d="M240.8517,564.2478c2.1063,.0016,3.1567,1.2307,4.32,2.6764,.6755,.8396,1.0038,2.0305,1.7933,2.77,.7894,.7396,1.735,.9657,2.8577,1.2445,5.9118,1.4684,19.7128,3.5684,10.7083,12.3564-8.1773,7.9808-25.1512,1.4467-34.9741-2.6808-.646-.2714-1.3581-.499-1.782-1.0958s-.6096-1.415-.7035-2.2067c-.5227-4.406-1.2361-10.2418,4.2924-11.1776,2.3584-.3992,4.3345,1.4307,6.86,.9797,2.0689-.3694,4.5217-2.8679,6.6279-2.8661Z"/></g><path class="cls-13" d="M140.6561,391.0683c16.1802,15.8979,62.4891,27.5687,70.0235,45.8693,3.0221,7.3406,10.5272,63.5952,12.0422,101.8187,.1082,2.7318-2.6122,18.4955-2.6414,22.1064,8.6294,2.4348,19.3094-.2939,28.6108,.3492,6.7951-44.0441,14.808-129.5663,14.808-129.5663-9.2031-38.52-53.6272-82.6927-78.2782-117.3963-4.083-5.7481-8.8579-13.6204-16.1863-14.5877-5.6204-.7418-10.0577,1.2127-15.1112,4.4466-13.521,8.6526-54.3983,22.4653-57.3948,39.7039-3.2751,18.8423,31.6952,35.0409,44.1274,47.2562Z"/></g><path class="cls-8" d="M147.61,149.3891c-14.0861,12.401-35.2974,23.744-43.7586,41.0003-20.468,41.7462-32.8857,86.5704-39.3495,132.3721-1.8905,13.3958-3.7803,26.7917-5.6714,40.1874-1.8607,13.1794-1.3977,16.2388,9.3695,17.2076,21.7629,1.9909,45.3224-5.1564,66.2273-10.7702,5.3308-1.4315,10.7255-2.998,15.358-5.9989,7.0016-4.5356,11.9308-12.1341,19.635-15.3338,3.6395-1.5116,7.6287-1.9122,11.551-2.2966,8.3934-.8226,17.7869-1.3584,24.2699,4.0358,3.7953,3.1579,5.7044,8.1634,9.5702,11.1284,2.6953-3.6938-1.0489-15.1923-1.7055-19.7902-1.0075-7.0563-1.8836-14.1378-2.0364-21.272-.3102-14.4885,.605-28.9809,1.8711-43.3687,2.2128-25.1451,3.3674-50.4107,5.4319-75.4978,1.4787-17.9681,5.2063-32.0371-7.0216-47.2173-6.6565-8.2637-18.8605-22.6146-29.8974-22.4209-11.7116,.2056-25.5293,10.7152-33.8435,18.0348Z"/><path class="cls-6" d="M212.6145,125.8536c-4.0791,3.8635-9.2116,6.3804-13.8507,9.5461-4.5134,3.0799-7.0654,6.4879-9.7866,11.0785-1.9653,3.3153-4.3409,5.566-8.8315,4.4479-8.4699-2.109-3.5008-7.813-3.3714-13.3767,.1478-6.3595-2.5265-12.5173-3.6373-18.698-3.2098-17.8596,10.7015-44.9414,31.7374-43.3891,23.0003,1.6971,20.1187,38.6672,7.7401,50.3913Z"/><path class="cls-13" d="M185.2315,95.0849c-2.305,1.4902-3.5745,4.7172-2.2961,7.1496,.6844,1.3023,1.9506,2.2037,2.7349,3.4481,2.3,3.6493-.3763,8.5008-3.7467,11.1877-3.3704,2.6868-7.5988,4.5432-9.8714,8.2098-11.4661-9.3115-20.2405-22.8047-21.0413-37.5747-.578-10.6598,3.6548-21.7659,11.5729-28.9851,9.294-8.4735,18.694-8.0071,30.7912-9.0413,4.5645-.3901,9.2804-.8032,13.7801,.3155,4.1218,1.0248,7.1629,3.9774,11.0023,5.2946,6.3563,2.1805,16.9694-.0942,21.9349-4.7716,3.0411-2.8646,4.8363-7.2329,8.6713-8.8826,3.7056-1.5941,8.3401,.1917,10.5548,3.5695,2.2148,3.3779,2.187,7.9259,.5222,11.6074-1.084,2.3973-2.7869,4.4784-3.8163,6.8997-2.1684,5.1013-1.1502,11.2017-3.6528,16.147-2.6485,5.2337-8.535,7.8711-14.1038,9.6825-5.7867,1.8823-12.0856,3.4928-16.2652,8.2487,.7641-3.1549-4.2822-10.1812-7.6173-10.8992-4.3149-.9289-11.1488,3.9841-15.5691,5.0417-4.2559,1.0181-9.8166,.9172-13.5846,3.3527Z"/></g><path class="cls-4" d="M186.7618,180.1681c-5.4585,6.9957-9.5882,15.6851-8.5243,24.4945,1.1395,9.4355,8.0656,17.9044,7.1701,27.3662-.4028,4.2543-2.3738,8.1785-3.578,12.2786-1.2043,4.1001-1.524,8.892,1.0434,12.308,2.0036,2.6659,5.5948,4.272,6.4154,7.5044,6.1959-8.0362,12.5653-16.4371,14.6762-26.3626,1.5123-7.111,.6767-14.6709-2.1626-21.3636-2.8221-6.652-7.6609-12.9205-7.3461-20.1397,.2935-6.7264,4.8948-12.0969,8.3947-17.4803,3.9928-6.1417,.0389-15.6723-2.7835-21.8936-1.3426-2.9595-3.3743-6.1099-6.5812-6.6355-.9524-.1561-1.9259-.0577-2.8859,.041-1.1461,.1178-2.3242,.245-3.3441,.7808-1.0199,.5357-1.8576,1.5842-1.7925,2.7344,1.6634-.5702,3.5437,.3655,4.6123,1.7622,2.3286,3.0434,3.2021,9.6263,2.6547,13.3674-.6278,4.2915-3.3733,7.9117-5.9686,11.2378Z"/><g><circle class="cls-5" cx="291.3427" cy="269.6226" r="142.5664" transform="translate(-105.3197 284.981) rotate(-45)"/><circle class="cls-3" cx="291.3426" cy="269.6226" r="120.9941"/><path class="cls-7" d="M359.6376,169.5851c11.1114,19.3797,16.9917,42.0607,15.8139,66.0288-3.2797,66.7428-60.0441,118.1896-126.7868,114.9098-23.18-1.139-44.5112-8.7343-62.3493-20.9534,19.8297,34.5857,56.3213,58.656,99.0958,60.758,66.7427,3.2798,123.507-48.1671,126.7868-114.9098,2.1407-43.5627-19.0366-82.8697-52.5604-105.8334Z"/><path class="cls-1" d="M191.1206,275.7819c2.8952-58.9164,53.0034-104.3306,111.9199-101.4354,34.4375,1.6922,64.2558,19.5195,82.5159,45.8035-16.8494-32.8845-50.318-56.1104-89.8735-58.0542-58.9165-2.8951-109.0247,42.519-111.9199,101.4355-1.2029,24.479,5.9398,47.4331,18.9197,66.1164-8.2471-16.0957-12.5135-34.5049-11.5621-53.8658Z"/><path class="cls-9" d="M305.1515,192.1129l-.7566,15.3959c6.1293,1.2988,11.0833,3.5897,14.8591,6.8718,3.7757,3.2832,7.2861,8.2063,10.5339,14.7693l-15.7377,7.8097c-4.1971-8.6045-10.0138-13.0909-17.4489-13.4562-4.6089-.2266-8.4992,.948-11.669,3.5214-3.1716,2.5738-4.8569,5.903-5.0576,9.9873-.1828,3.719,.8953,6.8685,3.2365,9.4505,2.2894,2.5273,7.0191,5.6205,14.1889,9.2797,6.194,3.1918,11.2979,6.1593,15.3105,8.9019,4.0114,2.7437,7.0074,5.3441,8.9864,7.8037,5.6032,6.6804,8.1831,14.5492,7.7379,23.6084-.4375,8.903-3.4942,16.627-9.17,23.1708-5.6221,6.4958-12.9157,10.7042-21.8803,12.6259l-.7991,16.2598-13.7463-.6755,.7758-15.7889c-10.1813-2.181-17.837-6.0991-22.9651-11.7579-5.1289-5.6583-8.7004-14.18-10.7123-25.5656l17.4586-2.7644c1.9654,8.0765,4.5655,13.8994,7.8032,17.4699,3.401,3.4226,8.0597,5.2783,13.978,5.5691,5.7597,.2831,10.6685-1.3388,14.727-4.8668,4.0022-3.477,6.1474-8.1232,6.433-13.936,.2549-5.1841-1.1388-9.426-4.1778-12.725-1.5494-1.5978-3.8606-3.4298-6.9347-5.4977-3.0747-2.0668-7.0179-4.347-11.829-6.8411-9.9356-5.0551-16.407-9.5724-19.4125-13.5522-4.7993-5.9569-7.0027-12.9157-6.6115-20.8759,.1853-3.7708,.9587-7.2487,2.3234-10.4372,1.364-3.1871,3.2501-6.0469,5.6578-8.5803,2.408-2.5316,5.3351-4.6844,8.7823-6.458,3.4458-1.7717,7.3179-3.1049,11.6131-3.9961l.7565-15.3958,13.7465,.6755Z"/></g><g><path class="cls-6" d="M215.2666,336.3701c.1182-.3297,.2118-.6673,.2719-1.0147,.5596-3.2411-2.0505-5.2283-2.3601-8.1346-.138-1.296,2.0291-4.533-.0535-5.0931-.7703-.2002-3.3061-1.098-5.9056-1.8394-1.7972-1.3543-3.6588-2.6305-5.3205-4.1488-4.2054-3.8429-8.5704-16.9253-15.866-14.1221-1.4113,.5422-2.8553,1.1039-3.99,2.1048-.9276,.8182-1.5968,1.8866-2.2021,2.9664-.4716,.8413-1.4206,2.0637-1.1704,2.9703,.2627,.9517,2.2817,2.3995,2.9793,3.1337,1.9936,2.0979,3.9873,4.1959,5.9809,6.2939,1.9555,2.0577,4.0672,4.6649,3.3527,7.4151-.1563,.6016-.4461,1.1702-.5195,1.7875-.0828,.6963,.1167,1.393,.3333,2.0598,.7933,2.4437,1.8021,4.8851,3.1448,7.0849,2.4028,3.931,9.6037,4.2343,13.6222,4.6967,1.0004,.115,2.0404,.2008,2.9915-.1307,1.547-.5391,2.5171-2.0398,3.3692-3.4418,.5045-.8302,1.0162-1.6791,1.3419-2.5879Z"/><g><path class="cls-2" d="M186.7356,322.7888c.3174-.0034,.6026-.1839,.8666-.3603,4.7529-3.1775,9.0028-7.1059,12.5436-11.5947-1.6599-1.748-3.3198-3.496-4.9798-5.244-.1237-.1304-.2546-.2653-.4248-.3232-.3562-.1211-.7213,.1319-1.0128,.3698-3.183,2.5975-6.3662,5.195-9.5492,7.7926-1.4266,1.1642-3.9891,2.7297-3.2563,4.7845,.392,1.0994,4.7165,4.5867,5.8127,4.5753Z"/><path class="cls-8" d="M142.5512,259.6349c-.0042,3.642-.0019,7.3357,.9553,10.849,.7631,2.8012,2.1114,5.403,3.5133,7.944,8.6933,15.7581,18.5189,28.8774,31.6092,41.2094,7.3812-4.1251,13.2682-11.353,18.4939-18.0103-8.1661-12.3229-13.3518-22.4071-19.4648-35.8723-1.2502-2.7538-2.4672-5.566-2.9409-8.5541-.6828-4.3052,.2156-8.6869,1.11-12.953,3.4686-16.5446,6.9373-33.0892,10.406-49.6338,2.0927-9.9821,4.1862-20.3413,1.9277-30.287-6.2624-27.5773-41.7382-23.7054-45.7807,2.3678-4.5391,29.2758,.2051,63.2291,.171,92.9403Z"/><path class="cls-2" d="M192.4747,300.0811c-1.0575-.5925-2.8095-.1199-2.906,1.2063-.0708,.9741,.8937,1.8554,1.8678,1.7868,1.5607-.11,2.4853-2.1141,1.0912-2.9621-.0174-.0107-.0351-.021-.053-.031Z"/><path class="cls-2" d="M188.8279,295.1522c-1.0575-.5925-2.8094-.1199-2.906,1.2062-.0708,.9742,.8937,1.8556,1.8678,1.7869,1.5607-.1101,2.4853-2.1142,1.0912-2.9621-.0174-.0107-.0351-.021-.053-.031Z"/></g></g></g></svg>